# xmcd
#
# Track frame offsets:
# 150
# 4872
# 23577
# 43947
# 67712
# 84673
# 113961
# 122688
# 142502
# 160010
# 174601
# 193762
# 218920
# 236882
#
# Disc length: 3607 seconds
#
#
# Revision: 0
# Processed by: cddbd v1.5.2PL0 Copyright (c) Steve Scherf et al.
# Submitted via: FreeRIP 2.941 
#
DISCID=b50e150e
DTITLE=Henry flower - Henry flower
DYEAR=1900
DGENRE=Rock
TTITLE0=Panic in alpha centauri
TTITLE1=Manflower
TTITLE2=When the day is done
TTITLE3=Magic carpet ride
TTITLE4=The outsider
TTITLE5=Mrs Brown
TTITLE6=Homan bean
TTITLE7=Tomorrow's child
TTITLE8=Crucial nexus
TTITLE9=Let's go naked
TTITLE10=Velvet flower
TTITLE11=Neptune forgets
TTITLE12=Sarah byng
TTITLE13=The fall of Ícarus
EXTD=Afonso Marques;baixo-David Edmundson;guitarra-George Gould;voz e guitarra-Tibérius Guerra;batera\nRoger de renor;gaita na faixa the outsider
EXTT0=
EXTT1=
EXTT2=
EXTT3=
EXTT4=
EXTT5=
EXTT6=
EXTT7=
EXTT8=
EXTT9=
EXTT10=
EXTT11=
EXTT12=
EXTT13=
PLAYORDER=
